{
  "asset": {
    "version": "2.0",
    "generator": "THREE.GLTFExporter r174"
  },
  "scenes": [
    {
      "name": "Scene",
      "nodes": [
        3,
        4,
        5,
        6
      ]
    }
  ],
  "scene": 0,
  "nodes": [
    {
      "matrix": [
        0.3507140998090522,
        -0.8526219252476173,
        -0.387344127078458,
        0,
        0.14734988501184632,
        -0.3582226740020351,
        0.9219352077113809,
        0,
        -0.924817620713469,
        -0.38041078903979336,
        1.1102230246251565e-16,
        0,
        83.57885898781608,
        -31.912720660159252,
        1.7873798694273653,
        1
      ],
      "name": "Vista_3D_{3D}",
      "extras": {
        "originalName": "Vista 3D: {3D}",
        "transformData": {
          "eulerOrder": "ZYX",
          "translation": [
            83.57885898781608,
            -31.912720660159252,
            1.7873798694273653
          ],
          "rotation": [
            90,
            22.789343847292255,
            -67.6408698066712
          ],
          "parentMatrix": {
            "elements": [
              1,
              0,
              0,
              0,
              0,
              1,
              0,
              0,
              0,
              0,
              1,
              0,
              -25.29376831810463,
              94.00234022342684,
              0,
              1
            ]
          },
          "parentMatrixWorld": {
            "elements": [
              1,
              0,
              0,
              0,
              0,
              1,
              0,
              0,
              0,
              0,
              1,
              0,
              -25.29376831810463,
              94.00234022342684,
              0,
              1
            ]
          }
        }
      }
    },
    {
      "matrix": [
        -3.552713678800501e-15,
        0.021855572875109308,
        -0.9997611384397279,
        0,
        -1,
        0,
        3.552713678800501e-15,
        0,
        0,
        0.9997611384397279,
        0.021855572875109308,
        0,
        25.293768318104625,
        -95.12218369037501,
        -0.5634160758081748,
        1
      ],
      "name": "Família-mob-parklet3_Família-mob-parklet3_320123",
      "extras": {
        "originalName": "Família-mob-parklet3 Família-mob-parklet3 [320123]",
        "transformData": {
          "eulerOrder": "ZYX",
          "translation": [
            30.470685964562698,
            -85.47967701682354,
            0.8113356101079494
          ],
          "rotation": [
            0,
            0,
            90.0000000000001
          ],
          "parentMatrix": {
            "elements": [
              1,
              0,
              0,
              0,
              0,
              1,
              0,
              0,
              0,
              0,
              1,
              0,
              -25.29376831810463,
              94.00234022342684,
              0,
              1
            ]
          },
          "parentMatrixWorld": {
            "elements": [
              1,
              0,
              0,
              0,
              0,
              1,
              0,
              0,
              0,
              0,
              1,
              0,
              -25.29376831810463,
              94.00234022342684,
              0,
              1
            ]
          }
        }
      },
      "mesh": 0
    },
    {},
    {
      "matrix": [
        1,
        0,
        0,
        0,
        0,
        1,
        0,
        0,
        0,
        0,
        1,
        0,
        -25.29376831810463,
        94.00234022342684,
        0,
        1
      ],
      "extras": {
        "unitScaleFactor": 30.48
      },
      "children": [
        0,
        1,
        2
      ]
    },
    {
      "matrix": [
        1,
        0,
        0,
        0,
        0,
        1,
        0,
        0,
        0,
        0,
        1,
        0,
        0,
        10.475598877439879,
        0,
        1
      ],
      "name": "AmbientLight"
    },
    {
      "name": "OrthographicCamera",
      "camera": 0
    },
    {
      "name": "AmbientLight"
    }
  ],
  "bufferViews": [
    {
      "buffer": 0,
      "byteOffset": 0,
      "byteLength": 989712,
      "target": 34962,
      "byteStride": 12
    },
    {
      "buffer": 0,
      "byteOffset": 989712,
      "byteLength": 989712,
      "target": 34962,
      "byteStride": 12
    },
    {
      "buffer": 0,
      "byteOffset": 1979424,
      "byteLength": 659808,
      "target": 34962,
      "byteStride": 8
    }
  ],
  "buffers": [
    {
      "byteLength": 2639232,
      "uri": "data:application/octet-stream;base64,"
    }
  ],
  "accessors": [
    {
      "bufferView": 0,
      "componentType": 5126,
      "count": 82476,
      "max": [
        2.457056760787964,
        8.234908103942871,
        3.0511810779571533
      ],
      "min": [
        -3.534670114517212,
        -8.234908103942871,
        -0.787401556968689
      ],
      "type": "VEC3"
    },
    {
      "bufferView": 1,
      "componentType": 5126,
      "count": 82476,
      "max": [
        1,
        1,
        1
      ],
      "min": [
        -1,
        -1,
        -1
      ],
      "type": "VEC3"
    },
    {
      "bufferView": 2,
      "componentType": 5126,
      "count": 82476,
      "max": [
        24.331642150878906,
        15.272309303283691
      ],
      "min": [
        -22.331642150878906,
        -23.61236572265625
      ],
      "type": "VEC2"
    }
  ],
  "materials": [
    {
      "pbrMetallicRoughness": {
        "metallicFactor": 0,
        "roughnessFactor": 1
      },
      "doubleSided": true
    }
  ],
  "meshes": [
    {
      "primitives": [
        {
          "mode": 4,
          "attributes": {
            "POSITION": 0,
            "NORMAL": 1,
            "TEXCOORD_0": 2
          },
          "material": 0
        }
      ]
    }
  ],
  "cameras": [
    {
      "type": "orthographic",
      "orthographic": {
        "xmag": 2.9764309764309766,
        "ymag": 2,
        "zfar": 2000,
        "znear": 0.1
      },
      "name": "OrthographicCamera"
    }
  ]
}