{
  "asset": {
    "version": "2.0",
    "generator": "THREE.GLTFExporter r174"
  },
  "scenes": [
    {
      "name": "Scene",
      "nodes": [
        2,
        3,
        4,
        5,
        6
      ]
    }
  ],
  "scene": 0,
  "nodes": [
    {
      "matrix": [
        0.3507140998090522,
        -0.8526219252476173,
        -0.387344127078458,
        0,
        0.14734988501184632,
        -0.3582226740020351,
        0.9219352077113809,
        0,
        -0.924817620713469,
        -0.38041078903979336,
        1.1102230246251565e-16,
        0,
        83.57885898781608,
        -31.912720660159252,
        1.7873798694273653,
        1
      ],
      "name": "Vista_3D_{3D}",
      "extras": {
        "originalName": "Vista 3D: {3D}",
        "transformData": {
          "eulerOrder": "ZYX",
          "translation": [
            83.57885898781608,
            -31.912720660159252,
            1.7873798694273653
          ],
          "rotation": [
            90,
            22.789343847292255,
            -67.6408698066712
          ],
          "parentMatrix": {
            "elements": [
              1,
              0,
              0,
              0,
              0,
              1,
              0,
              0,
              0,
              0,
              1,
              0,
              -25.29376831810463,
              94.00234022342684,
              0,
              1
            ]
          },
          "parentMatrixWorld": {
            "elements": [
              1,
              0,
              0,
              0,
              0,
              1,
              0,
              0,
              0,
              0,
              1,
              0,
              -25.29376831810463,
              94.00234022342684,
              0,
              1
            ]
          }
        }
      }
    },
    {},
    {
      "matrix": [
        1,
        0,
        0,
        0,
        0,
        1,
        0,
        0,
        0,
        0,
        1,
        0,
        -25.29376831810463,
        94.00234022342684,
        0,
        1
      ],
      "extras": {
        "unitScaleFactor": 30.48
      },
      "children": [
        0,
        1
      ]
    },
    {
      "matrix": [
        1,
        0,
        0,
        0,
        0,
        1,
        0,
        0,
        0,
        0,
        1,
        0,
        0,
        10.475598877439879,
        0,
        1
      ],
      "name": "AmbientLight"
    },
    {
      "name": "OrthographicCamera",
      "camera": 0
    },
    {
      "name": "AmbientLight"
    },
    {
      "matrix": [
        1.165737840647398,
        0,
        0,
        0,
        0,
        1,
        0,
        0,
        0,
        0,
        1.7918992229892785,
        0,
        0,
        0,
        0,
        1
      ],
      "name": "Octahedron",
      "mesh": 0
    }
  ],
  "cameras": [
    {
      "type": "orthographic",
      "orthographic": {
        "xmag": 2.9764309764309766,
        "ymag": 2,
        "zfar": 2000,
        "znear": 0.1
      },
      "name": "OrthographicCamera"
    }
  ],
  "bufferViews": [
    {
      "buffer": 0,
      "byteOffset": 0,
      "byteLength": 288,
      "target": 34962,
      "byteStride": 12
    },
    {
      "buffer": 0,
      "byteOffset": 288,
      "byteLength": 288,
      "target": 34962,
      "byteStride": 12
    },
    {
      "buffer": 0,
      "byteOffset": 576,
      "byteLength": 192,
      "target": 34962,
      "byteStride": 8
    }
  ],
  "buffers": [
    {
      "byteLength": 768,
      "uri": "data:application/octet-stream;base64,"
    }
  ],
  "accessors": [
    {
      "bufferView": 0,
      "componentType": 5126,
      "count": 24,
      "max": [
        1,
        1,
        1
      ],
      "min": [
        -1,
        -1,
        -1
      ],
      "type": "VEC3"
    },
    {
      "bufferView": 1,
      "componentType": 5126,
      "count": 24,
      "max": [
        0.5773502588272095,
        0.5773502588272095,
        0.5773502588272095
      ],
      "min": [
        -0.5773502588272095,
        -0.5773502588272095,
        -0.5773502588272095
      ],
      "type": "VEC3"
    },
    {
      "bufferView": 2,
      "componentType": 5126,
      "count": 24,
      "max": [
        1,
        1
      ],
      "min": [
        0,
        0
      ],
      "type": "VEC2"
    }
  ],
  "materials": [
    {
      "pbrMetallicRoughness": {
        "baseColorFactor": [
          0.13563332964548108,
          0.0722718506743852,
          0.2788942634659966,
          1
        ],
        "metallicFactor": 0,
        "roughnessFactor": 1
      },
      "doubleSided": true
    }
  ],
  "meshes": [
    {
      "primitives": [
        {
          "mode": 4,
          "attributes": {
            "POSITION": 0,
            "NORMAL": 1,
            "TEXCOORD_0": 2
          },
          "material": 0
        }
      ]
    }
  ]
}